<svg xmlns="http://www.w3.org/2000/svg" width="24" height="24" fill="none" viewBox="0 0 24 24">
    <path fill="#333" d="M10 6V5c-.315 0-.611.148-.8.4l.8.6zm-3 4l.316.949c.193-.065.362-.186.484-.349L7 10zm13-4l.92-.394C20.761 5.238 20.4 5 20 5v1zm3 7l.949.316c.077-.232.067-.485-.03-.71L23 13zm-1 3v1c.43 0 .813-.275.949-.684L22 16zm-3 0h-1c0 .552.448 1 1 1v-1zm-4 0v1c.552 0 1-.448 1-1h-1zm-7 0H7c0 .552.448 1 1 1v-1zm-4 0v1c.552 0 1-.448 1-1H4zm-2 0l-.707.707c.187.188.442.293.707.293v-1zm-1-1H0c0 .265.105.52.293.707L1 15zm0-3l-.316-.949C.275 11.187 0 11.57 0 12h1zm8.2-6.6l-3 4 1.6 1.2 3-4-1.6-1.2zM15 5h-5v2h5V5zm5 0h-5v2h5V5zm3.92 7.606l-3-7-1.84.788 3 7 1.84-.788zm-.971 3.71l1-3-1.898-.632-1 3 1.898.632zM19 17h3v-2h-3v2zm1-1c0-1.657-1.343-3-3-3v2c.552 0 1 .448 1 1h2zm-3-3c-1.657 0-3 1.343-3 3h2c0-.552.448-1 1-1v-2zm-9 4h7v-2H8v2zm-2-2c.552 0 1 .448 1 1h2c0-1.657-1.343-3-3-3v2zm-1 1c0-.552.448-1 1-1v-2c-1.657 0-3 1.343-3 3h2zm-3 1h2v-2H2v2zM.293 15.707l1 1 1.414-1.414-1-1-1.414 1.414zM0 12v3h2v-3H0zm6.684-2.949l-6 2 .632 1.898 6-2-.632-1.898z"/>
    <path fill-rule="evenodd" stroke="#333" stroke-linecap="round" stroke-linejoin="round" stroke-width="2" d="M6 18c1.105 0 2-.895 2-2s-.895-2-2-2-2 .895-2 2 .895 2 2 2zM17 18c1.105 0 2-.895 2-2s-.895-2-2-2-2 .895-2 2 .895 2 2 2z" clip-rule="evenodd"/>
    <path stroke="#333" stroke-linecap="round" stroke-linejoin="round" stroke-width="2" d="M11 11h7"/>
</svg>
