<svg xmlns="http://www.w3.org/2000/svg" width="24" height="24" fill="none" viewBox="0 0 24 24">
    <path fill="#333" d="M8 5V4c-.552 0-1 .448-1 1h1zm14 0h1c0-.552-.448-1-1-1v1zM8 9.429l-.496.868c.31.177.69.175.998-.004.308-.178.498-.508.498-.864H8zM2 6l.496-.868c-.31-.177-.69-.176-.998.003C1.19 5.314 1 5.644 1 6h1zm0 12H1c0 .357.19.686.498.865.308.179.689.18.998.003L2 18zm6-3.429h1c0-.356-.19-.686-.498-.864-.308-.18-.689-.18-.998-.004l.496.868zM8 19H7c0 .552.448 1 1 1v-1zm14 0v1c.552 0 1-.448 1-1h-1zM8 6h14V4H8v2zm1 3.429V5H7v4.429h2zm-.504-.869l-6-3.428-.992 1.736 6 3.429.992-1.737zM1 6v12h2V6H1zm1.496 12.868l6-3.428-.992-1.737-6 3.429.992 1.736zM9 19v-4.429H7V19h2zm13-1H8v2h14v-2zM21 5v14h2V5h-2z"/>
</svg>
